<?xml version="1.0" ?><svg height="1000" width="1000" xmlns="http://www.w3.org/2000/svg"><path d="M72 940c-8-3-14-12-14-22a473 473 0 0159-204l-6-10a402 402 0 01142-540c15-9 34-18 35-18 2 1 2 13 2 90 0 89 1 90 3 94 2 6 7 12 11 14l17 1 23 1c8 2 24 2 86 2l79 1c2 1 2 2 2 37v35l2 5c3 6 9 11 14 12h21l-3-3-5-6c-2-5-2-6-2-56v-51h-83c-93-1-88 0-103-8-11-5-21-16-27-27-7-14-6-12-6-97l1-83c5-18 17-33 33-41 13-6 21-7 51-7l25 1 4 2c6 3 8 7 10 13l2 5h12l13-1 3-5c1-5 5-10 10-12 4-2 6-3 25-3 16 0 21 0 25 2 8 2 13 7 16 13l2 6h14c12 0 14-1 15-2l3-6c2-5 8-10 13-12l144-1c159 0 152 0 167 7 16 8 28 23 33 41 1 6 2 12 2 83 0 85 0 83-7 97-6 11-16 22-27 27-14 7-15 7-56 8l-37 1 8 19a403 403 0 0134 208 400 400 0 01-266 335l-11 3v7c2 22 2 27 1 32-3 6-7 11-12 13-4 2-15 2-249 2-216 0-245 0-248-2z" fill="#fdefbb"/><path d="M71 940c-8-4-13-13-13-23l2-17a517 517 0 0154-179l4-8-5-10a404 404 0 01-11-371c20-41 43-73 76-106a375 375 0 01109-78l1 86c0 94 0 92 6 102 6 9 7 9 23 9 14 0 35 2 37 4l78 1 77 1v36c0 34 1 36 3 40 3 6 9 11 14 13 6 1 25 2 26 0l-4-3-7-7-2-4v-52l-1-51-83-1c-81-1-83-1-90-3-22-6-39-23-44-45-2-6-2-18-2-84 0-73 0-77 2-84 5-22 22-39 43-44 7-2 13-2 33-3 28 0 32 0 38 5 7 4 10 14 8 22-2 5-7 11-14 13-4 2-7 2-30 2-24 0-25 0-29 2-5 3-8 7-10 13l-1 77c0 69 1 73 2 76 3 5 5 7 9 9s6 2 97 2l97 1 8 5c7 6 7 5 7 49l1 39 54-44 56-47c4-2 5-3 16-3l17 1c6 2 11 7 14 13l2 5 22 1h20l3-7c4-7 7-10 14-12l46-1 45-1c5-3 7-5 9-10 2-3 3-4 3-76l-1-77c-1-6-5-10-10-13l-4-2H597l-5-3c-15-8-15-28 0-36l5-2h144l152 1c23 6 40 23 46 45 2 7 2 11 2 84 0 66 0 78-2 84-5 22-22 39-44 45-7 2-10 2-45 2-26 0-37 1-37 2l7 16a394 394 0 01-34 396c-26 36-63 73-99 99-30 20-65 38-102 51-6 2-6 0-4 20v19c-2 6-5 11-10 15l-4 3H76zm404-721c-9-4-18-13-20-23-4-20 15-39 35-35 11 2 21 12 23 23 5 22-17 41-38 35zm150 0c-9-4-18-13-20-23-4-20 15-39 35-35 11 2 21 12 23 23 5 22-17 41-38 35zm149 0c-9-4-18-13-20-23-4-20 15-39 35-35 11 2 21 12 23 23 5 22-17 41-38 35zM490 100c-3-1-7-2-9-4-13-9-11-27 2-34 5-2 6-2 27-2s22 0 27 2c14 7 17 22 7 33l-9 5h-45z" fill="#fde790"/><path d="M71 940c-8-4-13-13-13-23 0-11 5-49 10-71a307 307 0 01142-221l-5-7a162 162 0 01-36-167c19-53 66-93 121-103a157 157 0 01144 45 154 154 0 0147 109c0 15 0 19-2 30-5 31-20 62-41 84-5 4-8 8-8 9l3 3c14 7 37 24 53 40a368 368 0 0195 258c-2 6-7 11-12 14l-5 2H76zm478-503c-4-2-6-3-8-7l-2-4v-52l-1-51-83-1c-81-1-83-1-90-3-22-6-39-23-44-45-2-6-2-18-2-84 0-73 0-77 2-84 5-22 22-39 43-44 7-2 13-2 33-3l30 1c16 4 21 21 12 32-6 7-6 7-37 8l-31 2c-5 3-9 8-11 13v149c1 6 5 11 11 14 3 2 5 3 97 3h97c4 1 10 7 12 11s2 8 2 43l1 39 54-44 57-47c4-2 5-2 18-2 12 0 14 0 18 2s6 4 9 10c4 8 2 17-5 23-5 3-9 5-18 6h-7l-68 57-71 59c-6 3-12 2-18-1zm250-116c-8-2-14-7-16-16-2-8 3-18 11-23l47-1c43 0 45-1 48-3 6-3 10-8 11-14a1316 1316 0 00-2-152c-3-7-8-10-16-11l-145-1c-134 0-140 0-143-2-17-7-17-28-1-36l4-2h144l152 1c23 6 40 23 46 45 2 7 2 11 2 84 0 66 0 78-2 84-5 22-22 39-44 45-7 2-10 2-49 3l-47-1zM474 217c-6-2-15-11-17-17-4-11-2-22 7-30 8-9 19-11 30-7 6 2 15 11 17 17 4 11 2 22-7 30-8 9-19 11-30 7zm150 0c-6-2-15-11-17-17-4-11-2-22 7-30 8-9 19-11 30-7 6 2 15 11 17 17 4 11 2 22-7 30-8 9-19 11-30 7zm149 0c-6-2-15-11-17-17-4-11-2-22 7-30 8-9 19-11 30-7 6 2 15 11 17 17 4 11 2 22-7 30-8 9-19 11-30 7zM506 100c-22-1-23-1-29-7-9-10-6-25 6-31 5-2 6-2 27-2s22 0 27 2c7 3 10 8 12 14 3 12-6 24-19 24h-24z" fill="#aad6e0"/><path d="M71 939c-5-3-9-9-11-15s0-21 3-45a428 428 0 0157-167 278 278 0 0190-87l-5-7a163 163 0 01-41-153c12-44 42-82 83-102 24-13 42-17 69-17a157 157 0 01137 69 154 154 0 0128 87c0 15 0 19-2 30-5 31-20 62-41 84-5 4-8 8-8 9l3 3c14 7 37 24 53 40 43 44 72 105 87 184a322 322 0 017 72c-2 6-6 12-11 15l-4 2H75zm469-38l-2-16c-12-83-38-143-79-186-20-21-40-35-71-49-10-5-15-9-17-14-2-7 0-16 4-21l12-8c18-12 31-28 41-47 17-34 17-72 1-106a120 120 0 00-162-56 119 119 0 00-55 162c10 19 23 34 40 46l12 8c5 5 7 15 5 22-2 5-7 9-17 14-31 14-51 28-71 49a327 327 0 00-81 202c1 2 439 2 440 0zm11-463c-5-3-8-6-10-9l-1-54-1-53-84-1-83-1-9-2c-22-7-38-25-42-46a1690 1690 0 015-178c4-7 11-16 17-21 15-10 21-12 54-13l30 1c9 2 16 11 16 20 0 4-1 8-5 12-5 6-6 6-36 7l-31 2c-5 3-9 8-11 13v149c1 6 5 11 11 14 3 2 5 3 97 3h97c4 1 10 7 12 11s2 8 2 43l1 39 54-44 57-47c4-2 5-2 18-2 12 0 14 0 18 2s6 4 9 10c4 8 2 17-5 23-5 3-9 5-18 6h-7l-68 57-71 59c-6 3-12 3-16 0zm248-118c-8-1-14-7-16-15s3-18 11-23l47-1c43 0 45-1 48-3 6-3 10-8 11-14a1316 1316 0 00-2-152c-3-7-8-10-16-11l-145-1c-133 0-140 0-144-2s-9-8-11-12c-2-8 2-18 10-23l5-2 141-1 148 1a61 61 0 0152 45 1690 1690 0 011 166c-4 22-21 40-43 46-9 3-12 3-66 3l-31-1zM474 217c-6-2-15-11-17-17-4-11-2-22 7-30 8-9 19-11 30-7 6 2 15 11 17 17 4 11 2 22-7 30-8 9-19 11-30 7zm150 0c-6-2-15-11-17-17-4-11-2-22 7-30 8-9 19-11 30-7 6 2 15 11 17 17 4 11 2 22-7 30-8 9-19 11-30 7zm149 0c-6-2-15-11-17-17-4-11-2-22 7-30 8-9 19-11 30-7 6 2 15 11 17 17 4 11 2 22-7 30-8 9-19 11-30 7zM506 100c-21-1-23-1-28-7-5-5-6-9-5-16 2-8 6-13 15-16l24-1c19 0 20 1 25 3 6 3 9 6 11 13 2 4 2 6 1 9-2 9-10 15-19 15h-24z" fill="#f9b088"/><path d="M71 939c-5-3-9-9-11-15s0-21 3-45c10-65 27-116 54-161a260 260 0 0194-93l-6-7a160 160 0 01114-272c46 0 85 16 116 49a158 158 0 0143 139c-6 32-22 62-43 84l-6 7 9 7c80 49 129 142 142 269v23c-2 6-6 12-11 15l-4 2H75zm469-38l-2-16c-12-83-38-143-79-186-20-21-40-35-71-49-10-5-15-9-17-14-2-7 0-16 4-21l12-8c18-12 31-28 41-47 17-34 17-72 1-106a120 120 0 00-162-56 119 119 0 00-55 162c10 19 23 34 40 46l12 8c5 5 7 15 5 22-2 5-7 9-17 14-31 14-51 28-71 49a327 327 0 00-81 202c1 2 439 2 440 0zm14-462c-4-1-10-6-12-10-2-3-2-5-2-54l-1-53-84-1-83-1-9-2c-22-7-38-25-42-46a1690 1690 0 015-178c4-7 11-16 17-21 15-10 21-12 54-13 29 0 33 0 39 6 10 9 9 24-3 31-4 2-5 3-32 3s-28 1-32 3l-7 6-3 4v152l3 5c2 4 4 6 8 8l5 3h189l4 2c3 2 6 4 7 7l4 5v40l1 40 55-45 57-47c6-3 28-3 34 0 15 8 15 27 0 35-3 2-6 2-12 3h-8l-68 58-71 58c-5 2-9 3-13 2zm246-119c-8-2-13-6-15-12-5-10 0-21 10-25 3-2 10-2 47-2h43l5-3c4-2 6-4 8-8l3-5V113l-3-4-8-6-5-3H742l-146-1c-6-2-12-8-14-14-2-8 2-17 10-22l5-2 141-1 148 1a61 61 0 0152 45 1690 1690 0 011 166c-4 21-20 39-42 46-8 2-9 2-51 3l-46-1zM487 99c-6-3-9-5-12-10-6-11 0-24 13-28l24-1c19 0 20 1 25 3 15 7 16 25 3 34-3 2-4 3-26 3l-27-1z" fill="#9a9c96"/><path d="M72 938c-4-2-8-6-11-13v-17a458 458 0 0166-204 265 265 0 0186-79l-7-8a159 159 0 11228 0l-7 8 5 4c83 48 134 142 147 274v22c-3 7-6 11-11 13-4 2-14 2-248 2s-244 0-248-2zm469-39l-2-17c-18-121-67-197-149-233-11-5-16-9-18-16-2-9 1-16 14-24 28-19 45-43 53-75 2-8 2-12 2-28s0-20-2-28c-11-46-45-80-91-91-8-2-12-2-28-2s-20 0-28 2c-46 11-80 45-91 91-2 8-2 12-2 28s0 20 2 28c8 32 25 56 53 75 13 8 16 15 14 24-2 7-7 11-18 16-66 29-111 85-136 169-8 31-17 82-14 84l220 1h221zm9-463l-7-6-2-4v-52c0-52 0-53-2-54l-84-1c-78 0-82 0-89-2-20-5-34-18-42-38l-2-6-1-79c0-88 0-86 7-100 4-9 15-20 24-25 11-6 18-7 48-7 26 0 27 0 31 2s6 4 8 7c5 9 2 20-8 25-4 2-5 3-30 3s-27 0-31 2c-6 3-11 9-12 16l-1 77c0 71 1 72 3 76s6 8 11 10c3 2 11 2 98 2l96 1 4 2 6 7c2 4 2 6 2 43a502 502 0 003 42l56-46c29-25 55-46 58-47 5-3 25-3 31 0 4 2 8 6 10 10 3 7 0 16-6 21-3 3-11 5-18 5h-5l-67 56-71 59c-5 4-12 4-18 1zm248-118c-5-1-9-4-12-9-3-7-2-14 3-20 6-7 6-7 54-7 41 0 43 0 47-2s8-6 11-11c1-3 2-7 2-75l-1-77c-1-7-6-13-12-16-4-2-5-2-148-2-144 0-145-1-148-3-14-7-14-25-1-32 4-2 6-2 149-2 140 0 145 0 152 2l14 5c9 5 20 16 24 25 7 14 7 12 7 100l-1 79-2 6c-6 15-16 27-29 33-12 7-17 7-63 7l-46-1zM490 98c-13-3-19-14-14-25 2-5 4-7 8-9s6-2 25-2c24 0 28 1 33 6 9 8 7 21-3 28-3 2-4 3-24 3l-25-1z" fill="#8a877c"/><path d="M73 937c-5-2-7-4-10-9-2-6-3-11-1-29 7-61 21-111 43-154a266 266 0 01105-116c5-3 5-5 1-8a163 163 0 01-48-94 159 159 0 01198-174c27 7 49 20 69 40a155 155 0 0148 118 161 161 0 01-48 110c-5 3-5 5 0 8l31 21c11 9 34 31 43 44a402 402 0 0173 234l-7 8-3 3H321c-221 0-246 0-248-2zm467-34a408 408 0 00-36-142 227 227 0 00-108-110c-15-7-19-10-21-12-3-6-4-12-1-18 2-4 4-6 18-15 24-17 42-45 49-76 2-12 2-36 0-48a123 123 0 00-145-97 124 124 0 00-63 208c6 6 10 9 27 21 8 6 10 17 5 25-2 2-6 5-20 12a227 227 0 00-109 111 408 408 0 00-37 141h441zm10-468l-6-6c-2-3-2-6-2-56 0-33-1-52-2-53l-85-1-90-2c-20-6-36-22-42-43-2-8-2-159 0-167 3-8 4-12 9-19 10-14 24-23 42-25a385 385 0 0158 2c9 6 12 17 5 26-6 6-7 6-37 7h-28l-5 4c-3 2-5 4-7 8l-3 5v151l3 5c2 4 4 6 7 8l5 3 96 1 97 1 3 2 6 6c2 4 3 5 3 45 0 39 0 41 2 41l57-46 58-48 16-1c13 0 14 1 17 3 5 4 7 7 8 11 2 13-8 22-24 22h-5l-69 58-72 59c-5 2-11 1-15-1zm251-117c-14-3-20-18-12-28 5-7 4-6 54-7h45l5-4c3-2 5-4 7-8l3-5V115l-3-5c-2-4-4-6-7-8l-5-3-145-1c-140 0-146-1-149-2l-7-6c-2-3-2-4-2-10s0-7 2-10l8-6 4-2h140l148 1a58 58 0 0150 44c2 8 2 159 0 167-6 21-22 37-43 43l-48 2-45-1zM489 97c-12-3-17-15-12-25 4-9 10-10 36-10 17 0 19 1 23 3 11 5 14 18 7 27-5 6-8 6-30 6l-24-1z" fill="#7a7a7a"/></svg>