<?xml version="1.0" ?><!DOCTYPE svg  PUBLIC '-//W3C//DTD SVG 1.1//EN'  'http://www.w3.org/Graphics/SVG/1.1/DTD/svg11.dtd'><svg height="512px" style="enable-background:new 0 0 512 512;" version="1.1" viewBox="0 0 512 512" width="512px" xml:space="preserve" xmlns="http://www.w3.org/2000/svg" xmlns:xlink="http://www.w3.org/1999/xlink"><g id="_x31_69_x2C__Network_x2C__Social_x2C__Twitter"><g id="XMLID_5028_"><g id="XMLID_6744_"><g><g><path d="M454.02,93.77c-5.75,20.87-20.579,30.4-30.859,45.61c13.609-3.86,27.149-7.8,40.76-11.73       c-17.92,35.17-39.1,26.32-41.439,55.06C412.19,309.1,332.39,421.27,197.53,428.99c-41.67,2.34-128.88-14.07-149.45-38.2       c25.79-3.33,44.09-4.16,68.22-10.89c24.96-7.04,34.49-14.83,55.59-24.811C149.2,350.63,91.95,357.56,80,300       c12.25-0.38,36.3-0.81,47.27-7.31C91.42,275.82,58.18,256.06,60,210c15.2,3.86,18.78,7.66,39.21,8.11       c-29.65-37.66-53.4-57.03-26.63-114.74c28.97,21.56,41.07,41.9,78.89,61.87c26.7,14.15,65.96,25.19,100.9,26.93       c-15.73-97.5,95.6-143.56,144.31-80.4C420.81,111.84,435.64,100.95,454.02,93.77z" style="fill:#86DCFD;"/></g></g><g><g><path d="M189.058,439.212c-23.261,0-54.751-4.228-82.181-11.032c-23.179-5.75-53.515-15.778-66.407-30.902       c-2.38-2.792-3.04-6.664-1.719-10.087s4.41-5.849,8.049-6.318c6.247-0.807,12-1.461,17.563-2.095       c16.99-1.934,31.663-3.604,49.251-8.51c10.052-2.835,17.334-5.744,24.126-8.981c-9.664-1.484-20.044-3.954-29.702-8.607       c-20.138-9.702-32.866-26.742-37.828-50.646c-0.601-2.894,0.108-5.903,1.938-8.224s4.59-3.713,7.543-3.805l1.727-0.053       c4.38-0.131,10.727-0.32,17.243-0.848c-27.349-16.155-50.255-38.898-48.651-79.499c0.119-3.015,1.592-5.814,4.01-7.619       c2.417-1.804,5.52-2.422,8.444-1.679c4.838,1.229,8.566,2.447,11.854,3.523c0.281,0.091,0.558,0.182,0.832,0.271       c-21.726-27.661-35.641-53.197-11.639-104.94c1.267-2.73,3.696-4.746,6.614-5.485c2.92-0.738,6.014-0.125,8.428,1.671       c11.256,8.377,19.998,16.514,28.451,24.383c13.685,12.738,26.61,24.771,49.138,36.666       c23.366,12.383,55.592,21.708,84.965,24.854c-1.706-28.107,6.452-54.057,23.515-74.093       c18.326-21.52,45.698-34.368,73.22-34.368c24.958,0,47.299,10.198,63.461,28.841c13.266-0.854,23.264-5.518,34.668-10.837       c4.593-2.143,9.342-4.357,14.412-6.338c3.525-1.377,7.524-0.646,10.334,1.887c2.811,2.534,3.95,6.436,2.945,10.084       c-2.761,10.022-7.343,17.811-12.356,24.461c0.141-0.041,0.281-0.081,0.422-0.122l9.42-2.723       c3.828-1.106,7.948,0.168,10.484,3.239c2.538,3.072,3.009,7.358,1.2,10.908c-9.58,18.802-20.423,26.759-28.34,32.569       c-7.909,5.805-11.184,8.207-12.043,18.762c-5.411,66.462-29.6,128.011-68.109,173.307       c-42.463,49.945-99.947,78.351-166.237,82.146C195.284,439.132,192.245,439.212,189.058,439.212z M76.61,397.49       c29.002,12.447,78.139,21.722,112.447,21.722c2.815,0,5.477-0.069,7.912-0.206c136.193-7.797,206.393-124.705,215.544-237.107       c1.6-19.655,11.027-26.573,20.144-33.263c1.133-0.832,2.271-1.667,3.415-2.54c-3.397,0.974-6.798,1.944-10.184,2.905       c-4.038,1.146-8.367-0.354-10.83-3.758c-2.462-3.403-2.536-7.982-0.184-11.462c3.798-5.619,8.022-10.386,12.107-14.996       c1.07-1.208,2.121-2.394,3.145-3.571c-9.539,3.731-20.091,6.557-33.217,6.557l-0.26,0c-3.09-0.009-6.002-1.446-7.89-3.893       C376.284,101.699,358.2,92.79,337.84,92.79c-21.737,0-43.417,10.218-57.993,27.334c-11.111,13.048-23.185,35.862-17.604,70.453       c0.48,2.979-0.409,6.016-2.422,8.264s-4.926,3.47-7.948,3.317c-34.93-1.739-76.178-12.762-105.085-28.082       c-24.861-13.127-39.376-26.639-53.413-39.706c-5.278-4.914-10.674-9.937-16.685-14.987       c-14.014,37.679-0.732,54.058,21.731,81.767c2.792,3.443,5.678,7.004,8.646,10.773c2.394,3.041,2.819,7.189,1.09,10.652       c-1.728,3.462-5.281,5.612-9.167,5.532c-14.198-0.313-21.271-2.175-28.395-4.457c3.945,27.824,25.21,43.182,60.933,59.992       c3.35,1.576,5.555,4.874,5.731,8.572s-1.706,7.191-4.891,9.079c-9.359,5.545-24.269,7.402-39.174,8.203       c10.735,26.908,35.905,31.421,65.026,33.939c5.972,0.517,11.129,0.963,15.599,1.841c4.237,0.833,7.461,4.292,7.995,8.577       s-1.744,8.429-5.647,10.275c-6.257,2.959-11.465,5.721-16.502,8.392c-11.473,6.084-22.309,11.83-40.65,17.003       C103.519,393.847,90.475,395.819,76.61,397.49z"/></g></g></g></g></g><g id="Layer_1"/></svg>